<?xml version="1.0" encoding="utf-8"?>
<!-- Generator: Adobe Illustrator 23.0.3, SVG Export Plug-In . SVG Version: 6.00 Build 0)  -->
<svg version="1.1" id="Warstwa_1" xmlns="http://www.w3.org/2000/svg" xmlns:xlink="http://www.w3.org/1999/xlink" x="0px" y="0px"
	 viewBox="0 0 195.1 113" style="enable-background:new 0 0 195.1 113;" xml:space="preserve">
<style type="text/css">
	.st0{fill-rule:evenodd;clip-rule:evenodd;fill:#D2AB67;}
</style>
<g id="Warstwa_x0020_1">
	<path class="st0" d="M97.5,0.1L97.5,0.1c-0.6,0-1.4,0-2,0C72.8,1,52.8,15.2,44.8,36.4l0,0c-0.2,0.3,0,0.8,0.3,0.9l0,0
		c0.5,0.2,0.9,0,1.1-0.5l0,0C54,16.2,73.4,2.3,95.5,1.6l0,0c23.6-0.8,45,13.3,53.4,35.3l0,0c0,0.3,0.3,0.6,0.6,0.6l0,0
		c0.2,0,0.2-0.2,0.3-0.2l0,0c0.5-0.2,0.6-0.6,0.5-0.9l0,0C142,14.4,120.9,0.1,97.5,0.1z M95.7,2.8C74.2,3.5,55.3,17,47.5,36.8l0,0
		c-0.2,0.2,0,0.3,0.2,0.5l0,0c0.2,0,0.3,0,0.3-0.2l0,0c7.7-19.8,26.5-33,47.7-33.8l0,0c22.6-0.8,43.1,12.7,51.5,33.8l0,0
		c0,0,0,0.2,0.2,0.2l0,0h0.2l0,0c0.2-0.2,0.2-0.3,0.2-0.5l0,0c-8-20.6-28-34.1-50.1-34.1l0,0C96.9,2.8,96.3,2.8,95.7,2.8z
		 M96.4,11.1C87.6,11.3,79.2,14,71.9,19l0,0c-7,4.8-12.6,11.4-15.9,19.2l0,0c-0.2,0.3,0,0.8,0.3,0.9l0,0c0.5,0.2,0.8,0,1.1-0.3l0,0
		c6.8-15.6,22.1-25.7,39.1-26.2l0,0c17.9-0.5,34.1,9.8,41.3,26.2l0,0c0.2,0.2,0.5,0.3,0.6,0.3l0,0c0.2,0,0.3,0,0.3,0l0,0
		c0.5-0.2,0.6-0.6,0.5-0.9l0,0c-7.4-16.7-23.6-27.1-41.6-27.1l0,0C97.2,11.1,96.7,11.1,96.4,11.1z M96.4,14
		c-8,0.2-15.9,2.6-22.7,7.1l0,0c-6.5,4.4-11.7,10.4-15,17.6l0,0c0,0.2,0,0.3,0.2,0.5l0,0c0.2,0,0.3,0,0.5-0.2l0,0
		C66,24.3,80.2,14.9,96.4,14.4l0,0c16.8-0.5,32.2,9.2,39.4,24.5l0,0c0,0.2,0.2,0.2,0.3,0.2l0,0l0,0l0,0c0.2-0.2,0.3-0.3,0.2-0.5l0,0
		c-7-15.1-22.1-24.8-38.8-24.8l0,0C97.2,13.8,96.9,13.8,96.4,14z M97.5,22c-12.7,0-24.2,6.8-30.3,17.9l0,0c-0.2,0.3-0.2,0.8,0.3,1.1
		l0,0c0.3,0.2,0.8,0,0.9-0.3l0,0c5.9-10.6,17-17.1,29.1-17.3l0,0l0,0l0,0c12.1,0,23.3,6.7,29.1,17.3l0,0c0.2,0.2,0.5,0.3,0.6,0.3
		l0,0c0.2,0,0.3,0,0.5,0l0,0c0.3-0.3,0.5-0.8,0.3-1.1l0,0C121.7,28.8,110.2,22,97.5,22L97.5,22L97.5,22z M97.5,24.7
		c-11.4,0-21.8,6.1-27.5,15.7l0,0c0,0.2,0,0.3,0.2,0.5l0,0c0.2,0,0.3,0,0.5-0.2l0,0c5.4-9.5,15.9-15.4,26.9-15.6l0,0l0,0l0,0
		c11.1,0,21.5,6.1,27.1,15.6l0,0c0,0.2,0.2,0.2,0.3,0.2l0,0l0,0l0,0c0.2-0.2,0.3-0.3,0.2-0.5l0,0C119.3,30.8,108.8,24.7,97.5,24.7
		L97.5,24.7L97.5,24.7z M79.2,41.7c-0.3,0.3-0.2,0.8,0.2,1.1l0,0c0.3,0.3,0.8,0.2,1.1-0.2l0,0c4.4-5.3,10.9-8.3,17.9-8.2l0,0
		c6.4,0.3,12.4,3.2,16.5,8.2l0,0c0.2,0.2,0.3,0.3,0.5,0.3l0,0c0.3,0,0.5,0,0.6-0.2l0,0c0.3-0.3,0.3-0.8,0-1.1l0,0
		c-4.2-5.3-10.7-8.5-17.6-8.8l0,0c-0.3,0-0.5,0-0.8,0l0,0C90.4,32.9,83.7,36.1,79.2,41.7z M82.2,42.4c-0.2,0-0.2,0.3,0,0.3l0,0
		c0.2,0.2,0.3,0.2,0.5,0l0,0c3.9-4.2,9.5-6.7,15.4-6.5l0,0c5.4,0.2,10.6,2.6,14.4,6.5l0,0c0,0.2,0,0.2,0.2,0.2l0,0
		c0,0,0.2,0,0.2-0.2l0,0c0.2,0,0.2-0.2,0-0.3l0,0c-3.8-4.2-8.9-6.5-14.7-6.7l0,0c-0.2,0-0.3-0.2-0.6-0.2l0,0
		C91.7,35.6,86.1,38,82.2,42.4z M73.3,65.7h2.1V51.5l12.9,15.7V47.4h-2.1v14.2L73.3,45.9V65.7z M145.6,47.4c-1.2,0.5-2.3,1.2-3,2.1
		l0,0c-0.9,0.9-1.7,1.8-2.1,3l0,0c-0.5,1.2-0.8,2.4-0.8,3.8l0,0c0,1.4,0.3,2.6,0.8,3.8l0,0c0.5,1.2,1.2,2.3,2.1,3l0,0
		c0.8,0.9,1.8,1.7,3,2.1l0,0c1.2,0.5,2.4,0.8,3.8,0.8l0,0c1.4,0,2.6-0.3,3.8-0.8l0,0c1.2-0.5,2.3-1.2,3-2.1l0,0
		c0.9-0.8,1.7-1.8,2.1-3l0,0c0.5-1.2,0.8-2.4,0.8-3.8l0,0c0-1.4-0.3-2.6-0.8-3.8l0,0c-0.5-1.2-1.2-2.1-2.1-3l0,0
		c-0.8-0.9-1.8-1.7-3-2.1l0,0c-1.2-0.5-2.4-0.8-3.8-0.8l0,0C148,46.7,146.8,47,145.6,47.4z M146.4,63.5c-0.9-0.5-1.7-0.9-2.4-1.7
		l0,0c-0.6-0.6-1.2-1.5-1.7-2.4l0,0c-0.3-0.9-0.5-2-0.5-3l0,0c0-1.1,0.2-2,0.5-2.9l0,0c0.5-1.1,1.1-1.8,1.7-2.6l0,0
		c0.8-0.6,1.5-1.2,2.4-1.5l0,0c0.9-0.5,2-0.6,3-0.6l0,0c1.1,0,2.1,0.2,3,0.6l0,0c0.9,0.3,1.7,0.9,2.4,1.5l0,0
		c0.6,0.8,1.2,1.5,1.7,2.6l0,0c0.3,0.9,0.6,1.8,0.6,2.9l0,0c0,1.1-0.3,2.1-0.6,3l0,0c-0.5,0.9-1.1,1.8-1.7,2.4l0,0
		c-0.8,0.8-1.5,1.2-2.4,1.7l0,0c-0.9,0.3-2,0.6-3,0.6l0,0C148.3,64.1,147.3,63.8,146.4,63.5z M129.3,47.4c-1.2,0.5-2.3,1.2-3,2.1
		l0,0c-0.9,0.9-1.7,1.8-2.1,3l0,0c-0.5,1.2-0.8,2.4-0.8,3.8l0,0c0,1.4,0.3,2.6,0.8,3.8l0,0c0.5,1.2,1.2,2.3,2.1,3l0,0
		c0.9,0.9,1.8,1.7,3,2.1l0,0c1.2,0.5,2.4,0.8,3.8,0.8l0,0c0.9,0,2-0.2,2.7-0.3l0,0c0.9-0.3,1.8-0.8,2.6-1.2l0,0l0.2-0.2l-1.1-1.7
		l-0.2,0.2c-1.2,0.8-2.7,1.2-4.2,1.2l0,0c-1.1,0-2.1-0.3-3-0.6l0,0c-0.9-0.5-1.7-0.9-2.4-1.7l0,0c-0.6-0.6-1.2-1.5-1.7-2.4l0,0
		c-0.3-0.9-0.6-2-0.6-3l0,0c0-1.1,0.3-2,0.6-2.9l0,0c0.5-1.1,1.1-1.8,1.7-2.6l0,0c0.8-0.6,1.5-1.2,2.4-1.5l0,0c0.9-0.5,2-0.6,3-0.6
		l0,0c1.5,0,3,0.3,4.2,1.2l0,0l0.2,0.2l1.1-1.8h-0.2c-1.5-1.1-3.3-1.7-5.3-1.7l0,0C131.7,46.7,130.5,47,129.3,47.4z M23.5,47.4
		c-1.2,0.5-2.3,1.2-3.2,2.1l0,0c-0.8,0.9-1.5,1.8-2,3l0,0c-0.5,1.2-0.8,2.4-0.8,3.8l0,0c0,1.4,0.3,2.6,0.8,3.8l0,0
		c0.5,1.2,1.2,2.3,2,3l0,0c0.9,0.9,2,1.7,3.2,2.1l0,0c1.1,0.5,2.4,0.8,3.8,0.8l0,0c1.2,0,2.6-0.3,3.8-0.8l0,0c1.1-0.5,2.1-1.2,3-2.1
		l0,0c0.9-0.8,1.7-1.8,2.1-3l0,0c0.5-1.2,0.8-2.4,0.8-3.8l0,0c0-1.4-0.3-2.6-0.8-3.8l0,0c-0.5-1.2-1.2-2.1-2.1-3l0,0
		c-0.9-0.9-1.8-1.7-3-2.1l0,0c-1.2-0.5-2.4-0.8-3.8-0.8l0,0C25.9,46.7,24.5,47,23.5,47.4z M24.2,63.5c-0.9-0.5-1.8-0.9-2.4-1.7l0,0
		c-0.8-0.6-1.2-1.5-1.7-2.4l0,0c-0.3-0.9-0.6-2-0.6-3l0,0c0-1.1,0.3-2,0.6-2.9l0,0c0.5-1.1,0.9-1.8,1.7-2.6l0,0
		c0.6-0.6,1.5-1.2,2.4-1.5l0,0c0.9-0.5,2-0.6,3-0.6l0,0c1.1,0,2,0.2,2.9,0.6l0,0c1.1,0.3,1.8,0.9,2.6,1.5l0,0
		c0.6,0.8,1.2,1.5,1.5,2.6l0,0c0.5,0.9,0.6,1.8,0.6,2.9l0,0c0,1.1-0.2,2.1-0.6,3l0,0c-0.3,0.9-0.9,1.8-1.7,2.4l0,0
		c-0.6,0.8-1.4,1.2-2.4,1.7l0,0c-0.9,0.3-1.8,0.6-2.9,0.6l0,0C26.2,64.1,25.1,63.8,24.2,63.5z M5.9,47.4c-1.2,0.5-2.3,1.2-3,2.1l0,0
		c-0.9,0.9-1.7,1.8-2.1,3l0,0C0.3,53.8,0,55,0,56.4c0,1.4,0.3,2.6,0.8,3.8l0,0c0.5,1.2,1.2,2.3,2.1,3l0,0c0.8,0.9,1.8,1.7,3,2.1l0,0
		C7.1,65.7,8.3,66,9.7,66l0,0c1.1,0,2-0.2,3-0.5l0,0c0.9-0.3,1.8-0.8,2.7-1.4l0,0l0,0v-5.4H9.4v2h4.1V63c-1.2,0.8-2.4,1.1-3.8,1.1
		l0,0c-1.1,0-2.1-0.3-3-0.6l0,0C5.8,63,5,62.6,4.2,61.8l0,0c-0.6-0.6-1.2-1.5-1.7-2.4l0,0c-0.3-0.9-0.6-2-0.6-3l0,0
		c0-1.1,0.3-2,0.6-2.9l0,0c0.5-1.1,1.1-1.8,1.7-2.6l0,0c0.8-0.6,1.5-1.2,2.4-1.5l0,0c0.9-0.5,2-0.6,3-0.6l0,0c1.5,0,3,0.3,4.2,1.2
		l0,0l0.2,0.2l1.1-1.8H15c-1.5-1.1-3.3-1.7-5.3-1.7l0,0C8.3,46.7,7.1,47,5.9,47.4z M175.6,65.9l1.1-0.2c1.2,0,2.3-0.5,3.3-0.9l0,0
		c1.1-0.6,2-1.2,2.6-2.1l0,0c0.8-0.9,1.4-1.8,1.8-2.9l0,0c0.3-1.2,0.6-2.3,0.6-3.5l0,0c0-1.2-0.3-2.3-0.6-3.5l0,0
		c-0.5-1.1-1.1-2-1.7-2.9l0,0c-0.8-0.9-1.7-1.5-2.7-2.1l0,0c-0.9-0.6-2.1-0.9-3.3-0.9l0,0l-1.1-0.2V65.9z M177.6,49.1
		c0.8,0.3,1.5,0.6,2.1,0.9l0,0c0.6,0.5,1.2,1.1,1.7,1.7l0,0c0.5,0.8,0.9,1.5,1.2,2.3l0,0c0.3,0.8,0.3,1.7,0.3,2.4l0,0
		c0,0.9,0,1.7-0.3,2.4l0,0c-0.3,0.8-0.8,1.5-1.2,2.1l0,0c-0.5,0.8-1.1,1.2-1.7,1.7l0,0c-0.6,0.5-1.4,0.8-2.1,0.9l0,0V49.1z
		 M48.1,65.9l1.1-0.2c1.2,0,2.3-0.5,3.3-0.9l0,0c1.1-0.6,1.8-1.2,2.6-2.1l0,0c0.8-0.9,1.4-1.8,1.8-2.9l0,0c0.3-1.2,0.6-2.3,0.6-3.5
		l0,0c0-1.2-0.3-2.3-0.6-3.5l0,0c-0.5-1.1-1.1-2-1.8-2.9l0,0c-0.6-0.9-1.5-1.5-2.6-2.1l0,0c-1.1-0.6-2.1-0.9-3.3-0.9l0,0l-1.1-0.2
		V65.9z M50.1,49.1c0.8,0.3,1.5,0.6,2.1,0.9l0,0c0.6,0.5,1.2,1.1,1.7,1.7l0,0c0.5,0.8,0.9,1.5,1.2,2.3l0,0c0.2,0.8,0.3,1.7,0.3,2.4
		l0,0c0,0.9-0.2,1.7-0.3,2.4l0,0c-0.3,0.8-0.8,1.5-1.2,2.1l0,0c-0.5,0.8-1.1,1.2-1.7,1.7l0,0c-0.6,0.5-1.4,0.8-2.1,0.9l0,0V49.1z
		 M193.6,47c-0.8,0-1.5,0.2-2.1,0.3l0,0c-0.8,0.3-1.4,0.8-1.8,1.2l0,0c-0.5,0.5-0.9,1.1-1.2,1.7l0,0c-0.3,0.8-0.5,1.4-0.5,2.1l0,0
		c0,0.8,0.2,1.5,0.5,2.3l0,0c0.3,0.6,0.6,1.2,1.2,1.8l0,0l2.6,3c0.6,0.5,0.8,1.1,0.8,1.7l0,0c0,0.5,0,0.8-0.2,1.1l0,0
		c-0.2,0.5-0.5,0.6-0.6,0.9l0,0c-0.3,0.3-0.6,0.5-0.9,0.6l0,0c-0.3,0.2-0.6,0.2-0.9,0.2l0,0c-0.9,0-1.5-0.3-2-0.9l0,0l-0.2-0.2
		l-1.5,1.4v0.2c1.1,1.1,2.1,1.5,3.6,1.5l0,0c0.6,0,1.2,0,1.8-0.3l0,0c0.5-0.3,1.1-0.6,1.4-1.1l0,0c0.5-0.3,0.8-0.9,1.1-1.4l0,0
		c0.3-0.6,0.5-1.2,0.5-2l0,0c0-0.6-0.2-1.2-0.5-1.8l0,0c-0.3-0.5-0.6-0.9-0.9-1.4l0,0c-0.5-0.5-0.8-0.9-1.2-1.4l0,0
		c-0.5-0.5-0.9-0.8-1.2-1.2l0,0c-0.5-0.5-0.8-0.9-0.9-1.4l0,0c-0.3-0.5-0.3-1.1-0.3-1.7l0,0c0-0.5,0-0.9,0.2-1.4l0,0
		c0.3-0.3,0.5-0.8,0.8-1.1l0,0c0.3-0.3,0.8-0.5,1.2-0.6l0,0c0.5-0.2,0.9-0.3,1.4-0.3l0,0h0.2v-2H193.6z M162.4,47v18.8h2v-3h0.2l0,0
		c0.5,0,0.9,0,1.4-0.2l0,0c0.5-0.2,0.8-0.2,1.1-0.3l0,0l2.4,3.9l1.7-1.1l-2.3-3.8c1.1-0.8,2-1.7,2.6-2.7l0,0
		c0.6-1.2,1.1-2.4,1.1-3.8l0,0c0-1.1-0.3-2.1-0.8-3l0,0c-0.3-1.1-0.9-1.8-1.7-2.6l0,0c-0.6-0.8-1.5-1.4-2.4-1.7l0,0
		c-0.9-0.5-2-0.6-3-0.6l0,0H162.4z M164.4,48.9h0.2c0.8,0,1.5,0.2,2.3,0.5l0,0c0.6,0.3,1.2,0.8,1.8,1.2l0,0c0.5,0.6,0.9,1.2,1.2,2
		l0,0c0.3,0.8,0.5,1.5,0.5,2.3l0,0c0,0.8-0.2,1.5-0.5,2.3l0,0c-0.3,0.8-0.8,1.4-1.2,1.8l0,0c-0.6,0.6-1.2,0.9-1.8,1.2l0,0
		c-0.8,0.3-1.5,0.5-2.3,0.5l0,0h-0.2V48.9z M112.8,47v18.8h8.5v-2h-6.4v-3.5h5.8v-2h-5.8v-9.4h5.8v-2H112.8z M99.6,47v18.8h2v-3
		c0.2,0,0.2,0,0.3,0l0,0c0.3,0,0.9,0,1.4-0.2l0,0c0.3-0.2,0.8-0.2,1.1-0.3l0,0l2.3,3.9l1.8-1.1l-2.3-3.8c1.1-0.8,1.8-1.7,2.4-2.7
		l0,0c0.8-1.2,1.1-2.4,1.1-3.8l0,0c0-1.1-0.2-2.1-0.6-3l0,0c-0.5-1.1-1.1-1.8-1.7-2.6l0,0c-0.8-0.8-1.5-1.4-2.6-1.7l0,0
		c-0.9-0.5-2-0.6-3-0.6l0,0H99.6z M101.6,48.9h0.2c0.8,0,1.5,0.2,2.3,0.5l0,0c0.8,0.3,1.4,0.8,1.8,1.2l0,0c0.6,0.6,1.1,1.2,1.4,2
		l0,0c0.3,0.8,0.5,1.5,0.5,2.3l0,0c0,0.8-0.2,1.5-0.5,2.3l0,0c-0.3,0.8-0.8,1.4-1.4,1.8l0,0c-0.5,0.6-1.1,0.9-1.8,1.2l0,0
		c-0.8,0.3-1.5,0.5-2.3,0.5l0,0h-0.2V48.9z M61.3,47v18.8h8.5v-2h-6.5v-3.5h5.9v-2h-5.9v-9.4H69v-2H61.3z M40.3,47v44.2l8,0.2v-2.4
		h-6.1V47H40.3z M30.7,66.5v-0.3V66.5z M114.7,70.4c-4.1,5-10,8-16.5,8.2l0,0c-2.3,0.2-4.7-0.2-6.8-0.9l0,0c-0.5,0-0.9,0.2-1.1,0.6
		l0,0c0,0.3,0.2,0.8,0.6,0.9l0,0c2.1,0.6,4.2,0.9,6.5,0.9l0,0c0.3,0,0.6,0,0.9,0l0,0c6.8-0.3,13.2-3.5,17.4-8.8l0,0
		c0.3-0.3,0.3-0.8,0-1.1l0,0c-0.2,0-0.3-0.2-0.6-0.2l0,0C115,70.1,114.9,70.3,114.7,70.4z M112.5,70.3c-3.8,4.1-8.8,6.4-14.2,6.5
		l0,0c-2,0.2-3.9-0.2-5.8-0.6l0,0c-0.2,0-0.3,0-0.3,0.2l0,0c-0.2,0.2,0,0.3,0.2,0.5l0,0c1.7,0.3,3.5,0.6,5.1,0.6l0,0
		c0.3,0,0.5,0,0.8,0l0,0c5.6-0.2,10.7-2.6,14.5-6.7l0,0c0.2-0.2,0.2-0.3,0-0.5l0,0h-0.2l0,0H112.5z M126.5,72.6
		c-5.6,10.1-16.2,16.7-27.9,17.1l0,0c-4.5,0.2-8.9-0.6-13.2-2.3l0,0c-0.5-0.2-0.8,0-0.9,0.5l0,0c-0.2,0.5,0,0.8,0.3,0.9l0,0
		c4.1,1.7,8.3,2.4,12.6,2.4l0,0c0.5,0,0.9,0,1.2,0l0,0c12.1-0.5,23.3-7.4,29.2-18l0,0c0.2-0.3,0-0.8-0.3-0.9l0,0
		c-0.2-0.2-0.3-0.2-0.5-0.2l0,0C127,72.1,126.7,72.3,126.5,72.6z M124.6,72.3c-5.4,9.4-15.1,15.1-25.9,15.6l0,0
		c-4.2,0.2-8.3-0.5-12.1-2l0,0c-0.2,0-0.3,0-0.5,0.2l0,0c0,0.2,0.2,0.3,0.3,0.3l0,0c3.5,1.4,7.3,2.1,11.1,2.1l0,0c0.5,0,0.8,0,1.2,0
		l0,0c10.9-0.5,20.7-6.4,26.3-15.9l0,0c0.2-0.2,0-0.3,0-0.3l0,0c-0.2,0-0.2,0-0.2,0l0,0C124.7,72.3,124.6,72.3,124.6,72.3z
		 M26.6,73.5c-1.2,0.5-2.3,1.2-3,2.1l0,0c-0.9,0.8-1.7,1.8-2.1,3l0,0c-0.5,1.2-0.8,2.4-0.8,3.8l0,0c0,1.4,0.3,2.6,0.8,3.8l0,0
		c0.5,1.2,1.2,2.3,2.1,3l0,0c0.8,0.9,1.8,1.7,3,2.1l0,0c1.2,0.5,2.4,0.8,3.8,0.8l0,0c0.9,0,1.8-0.2,2.7-0.5l0,0
		c0.9-0.2,1.8-0.6,2.6-1.1l0,0l0.2-0.2l-1.1-1.7h-0.2c-1.4,0.9-2.7,1.4-4.2,1.4l0,0c-1.1,0-2.1-0.3-3-0.6l0,0
		c-0.9-0.5-1.7-0.9-2.4-1.7l0,0c-0.6-0.8-1.2-1.5-1.7-2.4l0,0c-0.3-0.9-0.6-2-0.6-3l0,0c0-1.1,0.3-2,0.6-3l0,0
		c0.5-0.9,1.1-1.7,1.7-2.4l0,0c0.8-0.6,1.5-1.2,2.4-1.7l0,0c0.9-0.3,2-0.6,3-0.6l0,0c1.5,0,3,0.5,4.2,1.4l0,0h0.2l1.1-1.7l-0.2-0.2
		c-1.5-1.1-3.3-1.5-5.3-1.5l0,0C29.1,72.7,27.9,73,26.6,73.5z M68.4,73v18.8h7c0.5,0,0.9,0,1.4-0.3l0,0c0.3-0.2,0.8-0.5,1.1-0.8l0,0
		c0.3-0.3,0.6-0.6,0.8-1.1l0,0c0.2-0.5,0.3-0.9,0.3-1.4l0,0c0-1.4-0.6-2.4-1.8-3l0,0c0.9-1.4,1.4-2.9,1.4-4.4l0,0
		c0-1.2-0.2-2.1-0.6-3.2l0,0c-0.5-0.9-0.9-1.7-1.7-2.4l0,0c-0.8-0.8-1.5-1.4-2.6-1.7l0,0c-0.9-0.5-2-0.6-3-0.6l0,0H68.4z M70.5,75
		c0.8,0,1.5,0.2,2.1,0.5l0,0c0.8,0.3,1.4,0.6,2,1.2l0,0c0.6,0.5,0.9,1.1,1.4,1.8l0,0c0.3,0.8,0.5,1.5,0.5,2.4l0,0
		c0,0.8-0.2,1.5-0.5,2.3l0,0c-0.3,0.8-0.8,1.4-1.4,1.8l0,0c-0.5,0.6-1.1,0.9-1.8,1.2l0,0c-0.8,0.3-1.5,0.5-2.3,0.5l0,0l0,0V75z
		 M70.5,88.8L70.5,88.8c2,0,3.6-0.6,5.1-2l0,0c0.3,0.2,0.6,0.3,0.8,0.5l0,0c0.3,0.3,0.3,0.6,0.3,1.1l0,0c0,0.5,0,0.8-0.3,1.1l0,0
		c-0.3,0.3-0.8,0.5-1.1,0.5l0,0h-4.8V88.8z M62.8,73v11.2c0,0.8-0.2,1.5-0.5,2.1l0,0c-0.2,0.8-0.6,1.4-1.1,1.8l0,0
		c-0.6,0.5-1.2,0.9-1.8,1.2l0,0c-0.8,0.3-1.5,0.5-2.3,0.5l0,0c-0.8,0-1.4-0.2-2.1-0.5l0,0c-0.6-0.3-1.2-0.6-1.8-1.2l0,0
		c-0.5-0.5-0.9-1.1-1.2-1.7l0,0c-0.3-0.8-0.5-1.5-0.5-2.3l0,0V73h-2v11.2c0,1.1,0.2,2.1,0.6,3l0,0c0.5,0.9,0.9,1.7,1.7,2.4l0,0
		c0.6,0.6,1.5,1.2,2.4,1.5l0,0c0.9,0.5,2,0.6,3,0.6l0,0c0.9,0,2-0.2,2.9-0.6l0,0c0.9-0.3,1.7-0.9,2.4-1.5l0,0
		c0.8-0.8,1.2-1.5,1.7-2.4l0,0c0.3-0.9,0.6-2,0.6-3l0,0V73H62.8z M137.7,74.4c-7,15.4-21.6,25.6-38.6,26.2l0,0
		c-6.8,0.2-13.2-1.1-19.4-3.8l0,0c-0.3-0.2-0.8,0-0.9,0.5l0,0c-0.2,0.3,0,0.8,0.3,0.9l0,0c5.9,2.6,12,3.9,18.3,3.9l0,0
		c0.6,0,1.1-0.2,1.7-0.2l0,0c8.6-0.3,17-3,24.1-7.9l0,0c7-4.8,12.4-11.4,15.9-19.1l0,0c0.2-0.5,0-0.9-0.5-1.1l0,0c0,0-0.2,0-0.3,0
		l0,0C138.2,73.9,137.9,74.1,137.7,74.4z M135.8,74.2C129.1,88.6,115,98,99,98.6l0,0c-6.2,0.3-12.4-0.9-18.2-3.3l0,0
		c-0.2-0.2-0.3,0-0.3,0.2l0,0c-0.2,0.2,0,0.3,0.2,0.3l0,0c5.3,2.3,10.9,3.5,16.8,3.5l0,0c0.5,0,1.1,0,1.5,0l0,0
		c16.2-0.6,30.4-10.1,37.2-24.8l0,0c0.2-0.2,0-0.3-0.2-0.3l0,0c0-0.2,0-0.2,0-0.2l0,0C135.9,73.9,135.8,74.1,135.8,74.2z
		 M148.9,76.2c-8,20.7-27.4,34.5-49.5,35.3l0,0c-13.6,0.6-26.9-4.1-37.2-12.9l0,0c-0.5-0.2-0.9-0.2-1.1,0.2l0,0
		c-0.3,0.3-0.3,0.8,0,1.1l0,0c10.3,8.6,23,13.2,36.3,13.2l0,0c0.8,0,1.4,0,2,0l0,0c22.9-0.8,42.7-15,50.9-36.3l0,0
		c0.2-0.3,0-0.8-0.5-0.9l0,0c-0.2,0-0.2,0-0.3,0l0,0C149.3,75.7,148.9,75.9,148.9,76.2z M147.1,76c-7.9,19.7-26.5,33-47.7,33.6l0,0
		c-13.2,0.6-25.9-3.8-36-12.3l0,0c-0.2,0-0.3,0-0.3,0l0,0c-0.2,0.2-0.2,0.3,0,0.5l0,0c9.7,8,21.8,12.4,34.4,12.4l0,0
		c0.6,0,1.4,0,2,0l0,0c21.3-0.8,40.3-14.1,48.1-34.1l0,0c0-0.2,0-0.3-0.2-0.3l0,0l-0.2-0.2l0,0C147.1,75.7,147.1,75.9,147.1,76
		L147.1,76z"/>
</g>
</svg>
